<svg xmlns="http://www.w3.org/2000/svg" xmlns:xlink="http://www.w3.org/1999/xlink" width="118" height="34" viewBox="0 0 118 34">
    <defs>
        <path id="a" d="M.132.17V20.84h4.166v-7.797h2.717c1.886 0 3.327-.098 4.322-.295.731-.16 1.451-.487 2.16-.98.709-.494 1.293-1.173 1.753-2.038.46-.864.69-1.931.69-3.2 0-1.645-.4-2.986-1.197-4.025-.798-1.038-1.788-1.713-2.97-2.023-.77-.207-2.421-.31-4.955-.31H.132zm4.166 3.497h2.013c1.501 0 2.5.047 2.999.141a2.881 2.881 0 0 1 1.675.916c.44.49.661 1.11.661 1.862 0 .61-.157 1.146-.471 1.607-.315.46-.749.799-1.302 1.015-.554.216-1.652.324-3.294.324h-2.28V3.667z"/>
        <path id="c" d="M2.682.095C1.134.265.282 1.2.132 2.905v28.226c.149 1.703.998 2.634 2.536 2.812H52.46c1.538-.178 2.388-1.11 2.537-2.812V2.906c-.15-1.706-1.002-2.64-2.55-2.811H2.683z"/>
        <path id="e" d="M.011.146V20.96h3.743v-7.553c0-1.268.113-2.227.34-2.875.227-.65.583-1.134 1.072-1.456a2.963 2.963 0 0 1 1.665-.482c.541 0 .993.125 1.352.376.36.25.61.59.752 1.015.142.426.213 1.43.213 3.01v7.965h3.743v-8.845c0-1.354-.065-2.352-.193-2.996a4.912 4.912 0 0 0-.72-1.76c-.35-.53-.872-.966-1.564-1.306a5.127 5.127 0 0 0-2.085-.506l-.038-.002c-1.578-.09-3.596.4-4.537 1.366V.146H.01z"/>
        <path id="g" d="M9.25.112V6.21c0 2.069-.092 3.369-.279 3.9-.186.53-.533.975-1.039 1.333a2.895 2.895 0 0 1-1.718.538c-.56 0-1.021-.134-1.386-.401a2.041 2.041 0 0 1-.752-1.09c-.138-.458-.206-1.703-.206-3.736V.112H.127V9.26c0 1.36.169 2.427.506 3.198.337.772.883 1.37 1.638 1.797.755.426 1.607.64 2.557.64.143 0 .283-.005.423-.016h.011c2.382-.071 3.624-1.175 4.255-1.903v1.592h3.476V.112H9.251z"/>
        <path id="i" d="M.16.143v20.414h3.733v-1.124c.86.675 2.242 1.458 4.347 1.458.082 0 .16 0 .236-.002.055.002.11.002.164.002 1.765 0 3.264-.682 4.499-2.047 1.234-1.365 1.851-3.309 1.851-5.834 0-2.442-.605-4.314-1.815-5.62-.855-.919-2.002-1.508-3.252-1.78a5.855 5.855 0 0 0-1.221-.177c-1.653-.146-3.776.497-4.763 1.304L4.18.143H.158zM4.894 16.24c-.496-.733-.744-1.865-.744-3.397 0-1.486.32-2.593.958-3.321.64-.729 1.44-1.093 2.403-1.093.982 0 1.788.373 2.417 1.12.63.748.944 1.966.944 3.655 0 1.588-.312 2.75-.937 3.49-.624.737-1.38 1.106-2.266 1.106-1.155 0-2.08-.52-2.775-1.56z"/>
    </defs>
    <g fill="none" fill-rule="evenodd">
        <path fill="#FEFEFE" d="M15.4 7l-5.26 15.542L4.703 7H0l7.678 21h4.63L20 7z"/>
        <g transform="translate(21 7)">
            <mask id="b" fill="#fff">
                <use xlink:href="#a"/>
            </mask>
            <path fill="#FEFEFE" d="M-7.42 28.367h30.91V-7.357H-7.42z" mask="url(#b)"/>
        </g>
        <path fill="#FEFEFE" d="M53.217 7v14.024L44.962 7H41v21h3.783V14.306L52.914 28H57V7z"/>
        <g transform="translate(63)">
            <mask id="d" fill="#fff">
                <use xlink:href="#c"/>
            </mask>
            <path fill="#F69820" d="M-7.548 41.488h70.225V-7.45H-7.548z" mask="url(#d)"/>
        </g>
        <g transform="translate(68 6)">
            <mask id="f" fill="#fff">
                <use xlink:href="#e"/>
            </mask>
            <path fill="#060707" d="M-7.223 28.636h27.347V-7.53H-7.223z" mask="url(#f)"/>
        </g>
        <g transform="translate(83 12)">
            <mask id="h" fill="#fff">
                <use xlink:href="#g"/>
            </mask>
            <path fill="#060707" d="M-7.107 22.252h27.334V-7.246H-7.107z" mask="url(#h)"/>
        </g>
        <g transform="translate(100 6)">
            <mask id="j" fill="#fff">
                <use xlink:href="#i"/>
            </mask>
            <path fill="#060707" d="M-7.608 28.42h30.365V-7.386H-7.608z" mask="url(#j)"/>
        </g>
    </g>
</svg>
