<?xml version="1.0" encoding="utf-8"?>
<!-- Generator: Adobe Illustrator 22.1.0, SVG Export Plug-In . SVG Version: 6.00 Build 0)  -->
<svg version="1.1" id="Layer_1" xmlns="http://www.w3.org/2000/svg" xmlns:xlink="http://www.w3.org/1999/xlink" x="0px" y="0px"
	 viewBox="0 0 512 512" style="enable-background:new 0 0 512 512;" xml:space="preserve">
<style type="text/css">
	.st0{fill:#051B30;}
</style>
<g id="XMLID_1351_">
	<g id="XMLID_595_">
		<path id="XMLID_596_" class="st0" d="M471.5,280.4l-142.6-76.7l177.8-95.6c4.9-2.6,6.7-8.7,4.1-13.5c-2.6-4.9-8.7-6.7-13.5-4.1
			l-130.5,70.2c-10-36.4-31.1-69.5-60.2-93.9C273.8,39.4,232.4,24,189.7,23.3c-50-0.8-97.2,17.8-132.9,52.3
			C21,110.1,0.9,156.7,0,206.7c-0.8,45.6,14.6,96.7,40,133.3c8.3,12,12.7,26,12.7,40.6v98.2c0,5.5,4.5,10,10,10s10-4.5,10-10v-98.2
			c0-18.7-5.6-36.7-16.3-52C33.6,295.7,19.3,248,20,207c1.6-91.8,77.5-165.3,169.4-163.7c75.5,1.2,141.5,54.4,159.2,127.2L303.1,195
			c-3.2,1.7-5.3,5.1-5.3,8.8s2,7.1,5.3,8.8l59.5,32l18.1,65.4h-42.3c-5.5,0-10,4.5-10,10v51.8c0,19.1-15.5,34.6-34.6,34.6h-30.7
			c-20,0-36.3,16.3-36.3,36.3v36.2c0,5.5,4.5,10,10,10s10-4.5,10-10v-36.2c0-9,7.3-16.3,16.3-16.3h30.7c30.1,0,54.6-24.5,54.6-54.6
			V330h45.5c3.1,0,6.1-1.5,8-3.9c1.9-2.5,2.5-5.7,1.7-8.7L387,257.7l75.1,40.4c1.5,0.8,3.1,1.2,4.7,1.2c3.6,0,7-1.9,8.8-5.3
			C478.2,289.1,476.4,283.1,471.5,280.4z"/>
		<path id="XMLID_611_" class="st0" d="M502,298.2L502,298.2c-5.5,0-10,4.5-10,10s4.5,10,10,10s10-4.5,10-10S507.5,298.2,502,298.2z
			"/>
		<path id="XMLID_612_" class="st0" d="M449.7,189.3c-3.9-3.9-10.2-3.9-14.1,0l-25.4,25.4c-3.9,3.9-3.9,10.2,0,14.1
			c2,2,4.5,2.9,7.1,2.9s5.1-1,7.1-2.9l18.3-18.3l12.3,12.3c3.9,3.9,10.2,3.9,14.1,0l24.7-24.7c1.8,2.6,4.8,4.4,8.3,4.4
			c5.5,0,10-4.5,10-10v-16.8c0-5.5-4.5-10-10-10h-16.8c-5.5,0-10,4.5-10,10c0,3.4,1.7,6.5,4.4,8.3L462,201.7L449.7,189.3z"/>
		<path id="XMLID_613_" class="st0" d="M146.6,77.9c-56.7,17.5-95.4,69.3-96.5,128.8c-0.1,5.5,4.3,10.1,9.8,10.2c0.1,0,0.1,0,0.2,0
			c5.4,0,9.9-4.4,10-9.8c0.9-50.9,34-95.1,82.4-110c5.3-1.6,8.2-7.2,6.6-12.5C157.5,79.2,151.9,76.2,146.6,77.9z"/>
		<path id="XMLID_614_" class="st0" d="M189.6,71.7c-2.6,0-5.2,1.1-7.1,2.9c-1.9,1.9-2.9,4.4-2.9,7.1c0,2.6,1.1,5.2,2.9,7.1
			c1.9,1.9,4.4,2.9,7.1,2.9c2.6,0,5.2-1.1,7.1-2.9c1.9-1.9,2.9-4.4,2.9-7.1c0-2.6-1.1-5.2-2.9-7.1C194.8,72.8,192.2,71.7,189.6,71.7
			z"/>
	</g>
</g>
</svg>
