<?xml version="1.0" encoding="utf-8"?>
<!-- Generator: Adobe Illustrator 22.1.0, SVG Export Plug-In . SVG Version: 6.00 Build 0)  -->
<svg version="1.1" id="Слой_1" xmlns="http://www.w3.org/2000/svg" xmlns:xlink="http://www.w3.org/1999/xlink" x="0px" y="0px"
	 viewBox="0 0 496 496" style="enable-background:new 0 0 496 496;" xml:space="preserve">
<style type="text/css">
	.st0{fill:#051B30;}
</style>
<path class="st0" d="M392,96c-13.7,0-27.3,2.8-40,8.1c0,0,0-0.1,0-0.1C352,46.7,305.3,0,248,0S144,46.7,144,104c0,0,0,0.1,0,0.1
	c-12.7-5.3-26.3-8.1-40-8.1C46.7,96,0,142.7,0,200s46.7,104,104,104c22.1,0,42.5-7,59.4-18.8l37,45.3c-5.5,8.8-8.4,18.9-8.4,29.5v16
	c0,18.3,9.1,35.5,24,45.9v3.5l-34.3,6.9C155.2,437.6,136,461,136,488v8h224v-8c0-27-19.2-50.4-45.7-55.7l-34.4-6.9v-3.5
	c14.9-10.4,24-27.6,24-45.9v-14c0-11.3-3.3-22-8.8-31l37.4-45.8C349.5,297,369.9,304,392,304c57.3,0,104-46.7,104-104
	S449.3,96,392,96z M256,16.4c44.8,4.1,80,41.8,80,87.6c0,19.9-6.7,38.2-17.9,52.9L256,100.5V16.4z M240,16.4V96h-79.6
	C164.2,53.9,197.9,20.2,240,16.4z M244.9,112l62.5,56.8C291.7,183.1,270.9,192,248,192c-45.8,0-83.5-35.2-87.6-80H244.9z M104,288
	c-48.5,0-88-39.5-88-88s39.5-88,88-88c14.6,0,28.9,3.8,41.8,10.9c5.3,28.5,22.2,53,45.6,68.3c0.3,3.2,0.6,6.1,0.6,8.9
	C192,248.5,152.5,288,104,288z M175.8,275.1c19.8-18.9,32.2-45.6,32.2-75.1c0,0,0,0,0,0c10,4.2,20.8,6.8,32,7.6v97
	c-10.8,1.5-20.8,6.2-29,13.5L175.8,275.1z M288,376c0,14.2-7.7,27.5-20,34.6l-4,2.3l0,25.6l47.2,9.4c16.3,3.3,28.8,16.2,32,32H152.8
	c3.2-15.8,15.7-28.7,32-32l47.2-9.4v-25.6l-4-2.3c-12.3-7.1-20-20.4-20-34.6v-16c0-10.9,4.3-21.1,12.2-28.7
	c7.8-7.6,18.3-11.6,29.1-11.3c21.4,0.6,38.8,19.5,38.8,42V376z M284.7,318.5c-7.9-7.2-17.9-12.2-28.7-13.8v-97
	c11.3-0.9,22-3.4,32-7.6v0c0,29.5,12.4,56.1,32.2,75.1L284.7,318.5z M392,288c-48.5,0-88-39.5-88-88c0-2.7,0.2-5.7,0.6-8.9
	c12.7-8.3,23.4-19.2,31.4-32V248h48v-96h-43.8c4.7-9,8.1-18.8,10-29.1c12.9-7,27.2-10.9,41.8-10.9c48.5,0,88,39.5,88,88
	S440.5,288,392,288z M352,232v-64h16v64H352z M64,260.9L169.9,208L64,155.1V260.9z M80,180.9l54.1,27.1L80,235.1V180.9z M400,248h48
	v-64h-48V248z M416,200h16v32h-16V200z"/>
</svg>
