<?xml version="1.0" encoding="utf-8"?>
<!-- Generator: Adobe Illustrator 22.1.0, SVG Export Plug-In . SVG Version: 6.00 Build 0)  -->
<svg version="1.1" id="Слой_1" xmlns="http://www.w3.org/2000/svg" xmlns:xlink="http://www.w3.org/1999/xlink" x="0px" y="0px"
	 viewBox="0 0 496 496" style="enable-background:new 0 0 496 496;" xml:space="preserve">
<style type="text/css">
	.st0{fill:#051B30;}
</style>
<path class="st0" d="M384,0H112v48H0v208h48v121.1c-13.8,3.6-24,16-24,30.9c0,17.6,14.4,32,32,32c14.9,0,27.3-10.2,30.9-24H160v13.8
	l19.6,6.5l-9.3,18.5l30.8,30.8l18.5-9.3l6.6,19.6h43.5l6.6-19.6l18.5,9.3l30.8-30.8l-9.3-18.5l19.7-6.5V416h73.1
	c3.6,13.8,16,24,30.9,24c17.6,0,32-14.4,32-32c0-14.9-10.2-27.3-24-30.9V256h48V48H384V0z M136,240h-8v-64h240v64H136z M368,160H128
	V96h240V160z M112,176H16v-48h96V176z M384,128h96v48h-96V128z M368,16v64H128V16H368z M112,64v48H16V64H112z M16,192h96v48H16V192z
	 M56,424c-8.8,0-16-7.2-16-16s7.2-16,16-16s16,7.2,16,16S64.8,424,56,424z M86.9,400C84,388.8,75.2,380,64,377.1V256h176v64h-13.8
	l-6.6,19.6l-18.5-9.3l-30.8,30.8l9.3,18.5l-19.6,6.5V400H86.9z M320,418.2l-18.4,6.1l-1.3,3.6c-0.4,1-0.8,2-1.2,3l-1.6,3.5l8.6,17.3
	l-14.5,14.5l-17.3-8.6l-3.5,1.6c-1,0.4-2,0.8-3,1.2l-3.5,1.4l-6.1,18.4h-20.5l-6.1-18.4l-3.5-1.4c-1-0.4-2-0.8-3-1.2l-3.5-1.6
	l-17.3,8.6l-14.5-14.5l8.6-17.3l-1.6-3.5c-0.4-1-0.8-2-1.2-3l-1.3-3.6l-18.4-6.1v-20.5l18.4-6.1l1.3-3.6c0.4-1,0.8-2,1.2-3l1.6-3.5
	l-8.6-17.3l14.5-14.5l17.3,8.6l3.5-1.6c1-0.4,2-0.8,3-1.2l3.5-1.4l6.1-18.3h20.5l6.1,18.4l3.5,1.4c1,0.4,2,0.8,3,1.2l3.5,1.6
	l17.3-8.6l14.5,14.5l-8.6,17.3l1.6,3.5c0.4,1,0.8,2,1.2,3l1.3,3.6l18.4,6.1V418.2z M456,408c0,8.8-7.2,16-16,16s-16-7.2-16-16
	s7.2-16,16-16S456,399.2,456,408z M432,377.1c-11.2,2.9-20,11.7-22.9,22.9H336v-13.8l-19.6-6.5l9.3-18.5l-30.8-30.8l-18.5,9.3
	l-6.6-19.6H256v-64h176V377.1z M384,240v-48h96v48H384z M480,64v48h-96V64H480z M160,48h-16V32h16V48z M192,48h-16V32h16V48z
	 M352,64h-16V32h16V64z M320,64h-16V32h16V64z M288,64h-16V32h16V64z M144,128v-16h16v16H144z M192,128h-16v-16h16V128z M352,144
	h-16v-32h16V144z M320,144h-16v-32h16V144z M288,144h-16v-32h16V144z M144,192h16v16h-16V192z M176,192h16v16h-16V192z M352,224h-16
	v-32h16V224z M304,192h16v32h-16V192z M272,192h16v32h-16V192z M464,96h-16V80h16V96z M416,96V80h16v16H416z M464,144v16h-16v-16
	H464z M416,144h16v16h-16V144z M448,208h16v16h-16V208z M416,208h16v16h-16V208z M80,96H64V80h16V96z M48,96H32V80h16V96z M80,160
	H64v-16h16V160z M32,160v-16h16v16H32z M80,208v16H64v-16H80z M32,208h16v16H32V208z M248,368c-22.1,0-40,17.9-40,40s17.9,40,40,40
	s40-17.9,40-40S270.1,368,248,368z M248,432c-13.2,0-24-10.8-24-24s10.8-24,24-24s24,10.8,24,24S261.2,432,248,432z"/>
</svg>
