<svg width="385" height="693" viewBox="0 0 385 693" fill="none" xmlns="http://www.w3.org/2000/svg">
<path d="M84.5799 491.43L57.1522 443.5L84.5799 395.57L139.42 395.57L166.848 443.5L139.42 491.43L84.5799 491.43Z" stroke="#F6F6F6" stroke-width="2"/>
<path d="M84.5773 394.498L57.1547 347L84.5773 299.503L139.423 299.503L166.845 347L139.423 394.498L84.5773 394.498Z" stroke="#F6F6F6" stroke-width="2"/>
<path d="M84.5773 297.498L57.1547 250L84.5773 202.503L139.423 202.503L166.845 250L139.423 297.498L84.5773 297.498Z" stroke="#F6F6F6" stroke-width="2"/>
<path d="M168.577 539.498L141.155 492L168.577 444.503L223.423 444.503L250.845 492L223.423 539.498L168.577 539.498Z" stroke="#F6F6F6" stroke-width="2"/>
<path d="M168.577 442.498L141.155 395L168.577 347.503L223.423 347.503L250.845 395L223.423 442.498L168.577 442.498Z" stroke="#F6F6F6" stroke-width="2"/>
<path d="M251.577 684.497L224.155 637L251.577 589.503L306.423 589.503L333.845 637L306.423 684.497L251.577 684.497Z" stroke="#F6F6F6" stroke-width="2"/>
<path d="M251.577 587.497L224.155 540L251.577 492.503L306.423 492.503L333.845 540L306.423 587.497L251.577 587.497Z" stroke="#F6F6F6" stroke-width="2"/>
<path d="M168.577 345.498L141.155 298L168.577 250.503L223.423 250.503L250.845 298L223.423 345.498L168.577 345.498Z" stroke="#F6F6F6" stroke-width="2"/>
<path d="M168.58 249.431L141.152 201.5L168.58 153.57L223.42 153.57L250.848 201.5L223.42 249.431L168.58 249.431Z" stroke="#F6F6F6" stroke-width="2"/>
<path d="M251.58 491.43L224.152 443.5L251.58 395.57L306.42 395.57L333.848 443.5L306.42 491.43L251.58 491.43Z" stroke="#F6F6F6" stroke-width="2"/>
<path d="M251.577 394.497L224.155 347L251.577 299.503L306.423 299.503L333.845 347L306.423 394.497L251.577 394.497Z" stroke="#F6F6F6" stroke-width="2"/>
<path d="M251.577 297.497L224.155 250L251.577 202.503L306.423 202.503L333.845 250L306.423 297.497L251.577 297.497Z" stroke="#F6F6F6" stroke-width="2"/>
<path d="M251.577 200.497L224.155 153L251.577 105.503L306.423 105.503L333.845 153L306.423 200.497L251.577 200.497Z" stroke="#F6F6F6" stroke-width="2"/>
<path d="M335.577 539.497L308.155 492L335.577 444.503L390.423 444.503L417.845 492L390.423 539.497L335.577 539.497Z" stroke="#F6F6F6" stroke-width="2"/>
<path d="M335.577 442.497L308.155 395L335.577 347.503L390.423 347.503L417.845 395L390.423 442.497L335.577 442.497Z" stroke="#F6F6F6" stroke-width="2"/>
<path d="M335.577 345.497L308.155 298L335.577 250.503L390.423 250.503L417.845 298L390.423 345.497L335.577 345.497Z" stroke="#F6F6F6" stroke-width="2"/>
<path d="M335.58 249.43L308.152 201.5L335.58 153.57L390.42 153.57L417.848 201.5L390.42 249.43L335.58 249.43Z" stroke="#F6F6F6" stroke-width="2"/>
<path d="M335.58 151.43L308.152 103.5L335.58 55.5696L390.42 55.5696L417.848 103.5L390.42 151.43L335.58 151.43Z" stroke="#F6F6F6" stroke-width="2"/>
<path d="M28.29 491.93L0.576076 443.5L28.29 395.07L83.71 395.07L111.424 443.5L83.71 491.93L28.29 491.93Z" stroke="#F6F6F6"/>
<path d="M28.2887 394.998L0.577348 347L28.2887 299.003L83.7113 299.003L111.423 347L83.7113 394.998L28.2887 394.998Z" stroke="#F6F6F6"/>
<path d="M28.2887 297.998L0.577348 250L28.2887 202.003L83.7113 202.003L111.423 250L83.7113 297.998L28.2887 297.998Z" stroke="#F6F6F6"/>
<path d="M112.289 442.998L84.5773 395L112.289 347.003L167.711 347.003L195.423 395L167.711 442.998L112.289 442.998Z" stroke="#F6F6F6"/>
<path d="M195.289 684.997L167.577 637L195.289 589.003L250.711 589.003L278.423 637L250.711 684.997L195.289 684.997Z" stroke="#F6F6F6"/>
<path d="M195.289 587.997L167.577 540L195.289 492.003L250.711 492.003L278.423 540L250.711 587.997L195.289 587.997Z" stroke="#F6F6F6"/>
<path d="M112.289 345.998L84.5773 298L112.289 250.003L167.711 250.003L195.423 298L167.711 345.998L112.289 345.998Z" stroke="#F6F6F6"/>
<path d="M195.29 491.93L167.576 443.5L195.29 395.07L250.71 395.07L278.424 443.5L250.71 491.93L195.29 491.93Z" stroke="#F6F6F6"/>
<path d="M195.289 394.997L167.577 347L195.289 299.003L250.711 299.003L278.423 347L250.711 394.997L195.289 394.997Z" stroke="#F6F6F6"/>
<path d="M195.289 297.997L167.577 250L195.289 202.003L250.711 202.003L278.423 250L250.711 297.997L195.289 297.997Z" stroke="#F6F6F6"/>
<path d="M195.289 200.997L167.577 153L195.289 105.003L250.711 105.003L278.423 153L250.711 200.997L195.289 200.997Z" stroke="#F6F6F6"/>
<path d="M279.289 539.997L251.577 492L279.289 444.003L334.711 444.003L362.423 492L334.711 539.997L279.289 539.997Z" stroke="#F6F6F6"/>
<path d="M279.289 442.997L251.577 395L279.289 347.003L334.711 347.003L362.423 395L334.711 442.997L279.289 442.997Z" stroke="#F6F6F6"/>
<path d="M279.289 345.997L251.577 298L279.289 250.003L334.711 250.003L362.423 298L334.711 345.997L279.289 345.997Z" stroke="#F6F6F6"/>
<path d="M279.29 249.93L251.576 201.5L279.29 153.07L334.71 153.07L362.424 201.5L334.71 249.93L279.29 249.93Z" stroke="#F6F6F6"/>
<path d="M362.289 393.997L334.577 346L362.289 298.003L417.711 298.003L445.423 346L417.711 393.997L362.289 393.997Z" stroke="#F6F6F6"/>
<path d="M362.29 297.93L334.576 249.5L362.29 201.07L417.71 201.07L445.424 249.5L417.71 297.93L362.29 297.93Z" stroke="#F6F6F6"/>
<path d="M362.289 489.998L334.577 442L362.289 394.003L417.711 394.003L445.423 442L417.711 489.998L362.289 489.998Z" stroke="#F6F6F6"/>
<path d="M362.289 200.997L334.577 153L362.289 105.003L417.711 105.003L445.423 153L417.711 200.997L362.289 200.997Z" stroke="#F6F6F6"/>
<path d="M279.29 151.93L251.576 103.5L279.29 55.0696L334.71 55.0696L362.424 103.5L334.71 151.93L279.29 151.93Z" stroke="#F6F6F6"/>
</svg>
