<?xml version="1.0" encoding="utf-8"?>
<!-- Generator: Adobe Illustrator 22.1.0, SVG Export Plug-In . SVG Version: 6.00 Build 0)  -->
<svg version="1.1" id="Capa_1" xmlns="http://www.w3.org/2000/svg" xmlns:xlink="http://www.w3.org/1999/xlink" x="0px" y="0px"
	 viewBox="0 0 512 512" style="enable-background:new 0 0 512 512;" xml:space="preserve">
<style type="text/css">
	.st0{fill:#051B30;}
</style>
<path class="st0" d="M214.4,118.9h-13.5v-0.6c0-11.1-9-20.1-20.1-20.1h-16.3c-11.1,0-20.1,9-20.1,20.1v0.6h-17.2l0,0v-0.6
	c0-11.1-9-20.1-20.1-20.1H90.8c-11.1,0-20.1,9-20.1,20.1v0.6H52.5c-4.2,0-7.6,3.4-7.6,7.6s3.4,7.6,7.6,7.6h18.2v0.6
	c0,11.1,9,20.1,20.1,20.1h16.3c11.1,0,20.1-9,20.1-20.1v-0.6l0,0h17.2v0.6c0,11.1,9,20.1,20.1,20.1h16.3c11.1,0,20.1-9,20.1-20.1
	v-0.6h13.5v0.6c0,11.1,9,20.1,20.1,20.1h16.3c11.1,0,20.1-9,20.1-20.1v-0.6h18.6c4.2,0,7.6-3.4,7.6-7.6c0-4.2-3.4-7.6-7.6-7.6h-18.6
	v-0.6c0-11.1-9-20.1-20.1-20.1h-16.3c-11.1,0-20.1,9-20.1,20.1L214.4,118.9L214.4,118.9z M112.1,134.7c0,2.7-2.3,5-5,5H90.8
	c-2.7,0-5-2.3-5-5v-16.3c0-2.7,2.3-5,5-5h16.3c2.7,0,5,2.3,5,5L112.1,134.7L112.1,134.7z M185.8,134.7c0,2.7-2.3,5-5,5h-16.3
	c-2.7,0-5-2.3-5-5v-16.3c0-2.7,2.3-5,5-5h16.3c2.7,0,5,2.3,5,5V134.7z M229.5,118.3c0-2.7,2.3-5,5-5h16.3c2.7,0,5,2.3,5,5v16.3
	c0,2.7-2.3,5-5,5h-16.3c-2.7,0-5-2.3-5-5V118.3z"/>
<path class="st0" d="M276.1,298.3h-16.3c-11.1,0-20.1,9-20.1,20.1v0.6h-18.2c-4.2,0-7.6,3.4-7.6,7.6s3.4,7.6,7.6,7.6h18.2v0.6
	c0,11.1,9,20.1,20.1,20.1h16.3c11.1,0,20.1-9,20.1-20.1v-0.6l0,0h18.1v0.6c0,11.1,9,20.1,20.1,20.1h16.3c11.1,0,20.1-9,20.1-20.1
	v-0.6h12.6v0.6c0,11.1,9,20.1,20.1,20.1h16.3c11.1,0,20.1-9,20.1-20.1v-0.6h18.6c4.2,0,7.6-3.4,7.6-7.6s-3.4-7.6-7.6-7.6h-18.6v-0.6
	c0-11.1-9-20.1-20.1-20.1h-16.3c-11.1,0-20.1,9-20.1,20.1v0.6h-12.6v-0.6c0-11.1-9-20.1-20.1-20.1h-16.3c-11.1,0-20.1,9-20.1,20.1
	v0.6h-18.1l0,0v-0.6C296.2,307.3,287.2,298.3,276.1,298.3L276.1,298.3z M398.5,318.4c0-2.7,2.3-5,5-5h16.3c2.7,0,5,2.3,5,5v16.3
	c0,2.7-2.3,5-5,5h-16.3c-2.7,0-5-2.3-5-5V318.4z M329.4,318.4c0-2.7,2.3-5,5-5h16.3c2.7,0,5,2.3,5,5v16.3c0,2.7-2.3,5-5,5h-16.3
	c-2.7,0-5-2.3-5-5V318.4z M281.1,334.7c0,2.7-2.3,5-5,5h-16.3c-2.7,0-5-2.3-5-5v-16.3c0-2.7,2.3-5,5-5h16.3c2.7,0,5,2.3,5,5V334.7z"
	/>
<path class="st0" d="M432.3,165.5c37.7,0,68.4-30.7,68.4-68.4S470,28.7,432.3,28.7S364,59.4,364,97.1S394.6,165.5,432.3,165.5
	L432.3,165.5z M432.3,43.8c29.4,0,53.3,23.9,53.3,53.3s-23.9,53.3-53.3,53.3S379,126.5,379,97.1C379.1,67.7,403,43.8,432.3,43.8
	L432.3,43.8z"/>
<path class="st0" d="M420.6,115.8c1.4,1.7,3.4,2.7,5.6,2.8c0.1,0,0.2,0,0.3,0c2.1,0,4.1-0.9,5.6-2.4l25.9-28
	c2.8-3.1,2.6-7.8-0.4-10.7c-3.1-2.8-7.8-2.6-10.7,0.4l-20,21.6l-8.7-10.9c-2.6-3.3-7.4-3.8-10.6-1.2c-3.3,2.6-3.8,7.4-1.2,10.6
	L420.6,115.8z"/>
<path class="st0" d="M490.7,198.7H343V21.4c0-11.7-9.6-21.3-21.3-21.3H21.3C9.6,0.1,0,9.6,0,21.4v191.9v21.2
	c0,11.7,9.6,21.3,21.3,21.3h98v17.8h-10.1c-7.2,0-12.8,2.1-16.7,6.1c-6.2,6.4-5.9,15.7-5.7,21.8c0.1,1.5,0.1,2.9,0,3.8
	c-0.1,2.1,0.6,4.1,2,5.7c1.4,1.5,3.4,2.4,5.5,2.4H169v35.8c0,4.2,3.4,7.6,7.6,7.6c4.2,0,7.6-3.4,7.6-7.6v-94.9
	c1.7-1.3,2.8-3.2,3-5.5H497v155.5H184.1v-24.8c0-4.2-3.4-7.6-7.6-7.6c-4.2,0-7.6,3.4-7.6,7.6v32.4v21.2c0,11.7,9.6,21.3,21.3,21.3
	h98v17.8h-10.1c-7.2,0-12.8,2.1-16.7,6.1c-6.2,6.4-5.9,15.7-5.7,21.8c0.1,1.5,0.1,2.9,0,3.8c-0.1,2.1,0.6,4.1,2,5.7
	c1.4,1.5,3.4,2.4,5.5,2.4h154.2c2.1,0,4.1-0.9,5.5-2.4s2.2-3.6,2-5.7c-0.1-0.9,0-2.3,0-3.7c0.2-6.2,0.4-15.5-5.9-22
	c-3.9-4-9.4-6-16.5-6h-10.2v-17.8h98c11.7,0,21.3-9.6,21.3-21.3v-21.2V220C512,208.3,502.4,198.7,490.7,198.7L490.7,198.7z
	 M21.3,15.2h300.5c3.4,0,6.2,2.8,6.2,6.2v13.8l-90.3-0.4l0,0c-4.2,0-7.5,3.4-7.6,7.5c0,4.2,3.4,7.6,7.5,7.6l90.3,0.4v148.4H190.2
	c-6.2,0-11.8,2.7-15.7,7H15.1V50.2h192.2c4.2,0,7.6-3.4,7.6-7.6s-3.4-7.6-7.6-7.6H15.1V21.4C15.1,18,17.9,15.2,21.3,15.2L21.3,15.2z
	 M15.1,234.5v-13.7H169v19.8H21.3C17.9,240.7,15.1,237.9,15.1,234.5L15.1,234.5z M134.4,255.8H169v17.8h-34.5v-17.8H134.4z
	 M101.9,298.2c0-3.2,0.1-6.6,1.5-8c0.9-1,3-1.5,5.9-1.5h17.6l0,0H169v9.5H101.9z M184.1,233.7V220c0-0.3,0-0.5,0-0.7
	c1.4-1.1,2.4-2.7,2.8-4.5c1-0.6,2.1-1,3.3-1h300.5c3.4,0,6.2,2.8,6.2,6.2v13.7H184.1z M408.5,488.7c1.4,1.4,1.7,4.8,1.7,8.1H270.8
	c0-3.2,0.1-6.6,1.5-8c0.9-1,3-1.5,5.9-1.5h17.6h89.3h17.7C404.4,487.3,407.3,487.5,408.5,488.7L408.5,488.7z M377.6,472.2h-74.2
	v-17.8h74.2L377.6,472.2L377.6,472.2z M496.9,433.1c0,3.4-2.8,6.2-6.2,6.2H190.2c-3.4,0-6.2-2.8-6.2-6.2v-13.7h312.8L496.9,433.1z"
	/>
</svg>
